<?xml version="1.0" standalone="no"?><!DOCTYPE svg PUBLIC "-//W3C//DTD SVG 1.1//EN" "http://www.w3.org/Graphics/SVG/1.1/DTD/svg11.dtd"><svg t="1591422067245" class="icon" viewBox="0 0 1024 1024" version="1.1" xmlns="http://www.w3.org/2000/svg" p-id="3205" xmlns:xlink="http://www.w3.org/1999/xlink" width="16" height="16"><defs><style type="text/css"></style></defs><path d="M292.790857 146.285714c0 40.228571-32.914286 73.142857-73.142857 73.142857H73.142857c-40.228571 0-73.142857-32.914286-73.142857-73.142857s32.914286-73.142857 73.142857-73.142857h146.505143c40.228571 0 73.142857 32.914286 73.142857 73.142857z" p-id="3206" fill="#fff"></path><path d="M219.648 950.857143c-40.228571 0-73.142857-32.914286-73.142857-73.142857V146.285714c0-40.228571 32.914286-73.142857 73.142857-73.142857s73.142857 32.914286 73.142857 73.142857v731.428572c0 40.228571-32.914286 73.142857-73.142857 73.142857z" p-id="3207" fill="#fff"></path><path d="M292.790857 877.714286c0 40.228571-32.914286 73.142857-73.142857 73.142857H73.142857c-40.228571 0-73.142857-32.914286-73.142857-73.142857s32.914286-73.142857 73.142857-73.142857h146.505143c40.228571 0 73.142857 32.914286 73.142857 73.142857zM731.209143 146.285714c0 40.228571 32.914286 73.142857 73.142857 73.142857H950.857143c40.228571 0 73.142857-32.914286 73.142857-73.142857s-32.914286-73.142857-73.142857-73.142857h-146.505143c-40.228571 0-73.142857 32.914286-73.142857 73.142857z" p-id="3208" fill="#fff"></path><path d="M804.352 950.857143c40.228571 0 73.142857-32.914286 73.142857-73.142857V146.285714c0-40.228571-32.914286-73.142857-73.142857-73.142857s-73.142857 32.914286-73.142857 73.142857v731.428572c0 40.228571 32.914286 73.142857 73.142857 73.142857z" p-id="3209" fill="#fff"></path><path d="M731.209143 877.714286c0 40.228571 32.914286 73.142857 73.142857 73.142857H950.857143c40.228571 0 73.142857-32.914286 73.142857-73.142857s-32.914286-73.142857-73.142857-73.142857h-146.505143c-40.228571 0-73.142857 32.914286-73.142857 73.142857zM438.857143 0h146.285714v146.285714H438.857143zM438.857143 877.714286h146.285714v146.285714H438.857143zM438.857143 658.285714h146.285714v146.285715H438.857143zM438.857143 438.857143h146.285714v146.285714H438.857143zM438.857143 219.428571h146.285714v146.285715H438.857143z" p-id="3210" fill="#fff"></path></svg>